# xmcd
#
# Track frame offsets:
#	150
#	9757
#	17085
#	47188
#	64513
#	106245
#	125640
#	141375
#	161030
#	179625
#	189000
#
# Disc length: 3289 seconds
#
# Revision: 0
# Processed by: cddbd v1.5.2PL0 Copyright (c) Steve Scherf et al.
# Submitted via: EZCDAudioConverter 8.3.2.1
#
DISCID=8f0cd70b
DTITLE=Γαϊτάνος Πέτρος - Ώρα ενάτη-Π. Γαϊτάνος
DYEAR=2011
DGENRE=Βυζ. Εκκλησιαστική
TTITLE0=Ιδού ο Νυμφίος [ήχος πλ. δ' κατά τριφωνία]
TTITLE1=Τον Νυμφώνα Σου [ήχος γ']
TTITLE2=Σήμερον κρεμάται [ήχος πλ. β']
TTITLE3=Εξέδυσάν με τα ιματιά μου [δοξαστ. αίνων Μ. Παρασκευής]
TTITLE4=Σε τον αναβαλλόμενον [ήχος πλ. α']
TTITLE5=Η ζωή εν τάφω  [ηχος πλ. α']
TTITLE6=Άξιον εστί [ήχος πλ. α']
TTITLE7=Αι γενεαί πάσαι [ήχος γ']
TTITLE8=Αναστάσεως ημέρα [ήχος α']
TTITLE9=Χριστός Ανέστη [ήχος πλ. α']
TTITLE10=Χριστός Ανέστη-Ύμνος της αγάπης [σύνθ. Εμμ. Χατζημάρκος, ήχος πλ. α']
EXTD=
EXTT0=
EXTT1=
EXTT2=
EXTT3=
EXTT4=
EXTT5=
EXTT6=
EXTT7=
EXTT8=
EXTT9=
EXTT10=
PLAYORDER=
